<?xml version="1.0" encoding="UTF-8"?>
<svg id="Layer_1" data-name="Layer 1" xmlns="http://www.w3.org/2000/svg" viewBox="0 0 482.22 560.34">
  <defs>
    <style>
      .cls-1 {
        fill: #179bd7;
        fill-rule: evenodd;
      }

      .cls-2 {
        fill: #253b80;
      }
    </style>
  </defs>
  <path class="cls-2" d="M429.68,177.61c.26.26.53.4.79.66l-.79-.66Z"/>
  <path class="cls-1" d="M429.68,177.61c-.93,8.73-2.51,17.2-4.63,25.41-7.41,27.66-22.1,52.41-41.82,72.13-29.12,29.12-69.48,47.25-113.95,47.25h-104.82l-47.51,175.89c-4.37,28.19-8.6,48.57-8.6,48.57-1.19,6.09,2.78,12.04,8.87,13.23.66.13,1.46.26,2.12.26h106.8c5.82,0,10.72-4.63,11.12-10.32l19.19-133.4h88.94c37.72,0,71.86-14.95,96.61-39.04,24.88-24.22,40.23-57.7,40.23-94.63,0-20.78-4.9-40.5-13.63-58.1-9-18.26-22.1-34.14-38.12-46.59l-.79-.66Z"/>
  <path class="cls-2" d="M140.78,490.47c-.4,2.65-.79,5.29-1.19,7.81H11.21v-.13h-1.59c-6.09-.93-10.32-6.62-9.53-12.71L66.8,10.46c.4-5.82,5.29-10.46,11.25-10.46h191.24c44.6,0,84.83,18.13,114.08,47.25,29.12,29.12,47.11,69.48,47.11,113.95h0c0,5.56-.26,10.98-.79,16.41-.93,8.73-2.51,17.2-4.63,25.41-7.41,27.66-22.1,52.41-41.82,72.13-29.12,29.12-69.48,47.25-113.95,47.25h-104.82l-23.16,165.43c-.13.93-.26,1.85-.53,2.65Z"/>
</svg>